<!-- Shape: bell_on -->
<svg xmlns:xlink="http://www.w3.org/1999/xlink" fill="none" width="36" xmlns="http://www.w3.org/2000/svg" style="-webkit-print-color-adjust:exact" id="screenshot-3227b980-8532-8021-8003-5b27822f3651" version="1.1" viewBox="313.083 963 36 36" height="36">
  <g id="shape-3227b980-8532-8021-8003-5b27822f3651" style="fill:#000000" rx="0" ry="0">
    <g id="shape-3227b980-8532-8021-8003-5b27822f58b3" style="fill:#000000" rx="0" ry="0">
      <g id="shape-3227b980-8532-8021-8003-5b27823142cc">
        <g class="fills" id="fills-3227b980-8532-8021-8003-5b27823142cc">
          <path rx="0" ry="0" style="fill:#2c2c2c;fill-opacity:1" d="M341.268,986.010C340.762,985.497,340.095,985.173,339.378,985.095L339.378,978.285C339.383,976.084,338.508,973.973,336.948,972.420C336.032,971.527,334.931,970.846,333.723,970.425L333.723,970.335C333.739,968.943,332.693,967.767,331.308,967.620C330.571,967.552,329.840,967.798,329.294,968.298C328.749,968.798,328.440,969.505,328.443,970.245L328.443,970.425C325.071,971.565,322.798,974.725,322.788,978.285L322.788,985.095C321.180,985.280,319.967,986.641,319.968,988.260L319.968,989.055C319.969,990.811,321.392,992.234,323.148,992.235L328.533,992.235C328.747,993.476,329.824,994.384,331.083,994.384C332.343,994.384,333.420,993.476,333.633,992.235L339.018,992.235C340.774,992.234,342.198,990.811,342.198,989.055L342.198,988.260C342.202,987.416,341.867,986.605,341.268,986.010ZZM340.698,989.055C340.699,989.501,340.522,989.929,340.207,990.244C339.892,990.559,339.464,990.736,339.018,990.735L323.148,990.735C322.703,990.736,322.275,990.559,321.960,990.244C321.644,989.929,321.468,989.501,321.468,989.055L321.468,988.260C321.468,987.814,321.644,987.386,321.960,987.071C322.275,986.756,322.703,986.579,323.148,986.580C323.453,986.579,323.745,986.457,323.959,986.240C324.173,986.023,324.292,985.730,324.288,985.425L324.288,978.285C324.302,975.283,326.274,972.642,329.148,971.775C329.623,971.640,329.949,971.204,329.943,970.710L329.943,970.245C329.940,969.924,330.077,969.617,330.318,969.405C330.526,969.211,330.799,969.104,331.083,969.105L331.188,969.105C331.795,969.194,332.240,969.722,332.223,970.335L332.223,970.710C332.217,971.204,332.543,971.640,333.018,971.775C334.097,972.106,335.080,972.692,335.883,973.485C337.167,974.751,337.886,976.482,337.878,978.285L337.878,985.425C337.879,985.732,337.997,986.027,338.208,986.250C338.425,986.462,338.716,986.580,339.018,986.580C339.944,986.586,340.693,987.335,340.698,988.260Z">
          </path>
        </g>
      </g>
    </g>
  </g>
</svg>