<!-- Shape: Mail -->
<svg xmlns:xlink="http://www.w3.org/1999/xlink" fill="none" width="29.805" xmlns="http://www.w3.org/2000/svg" style="-webkit-print-color-adjust:exact" id="screenshot-3227b980-8532-8021-8003-5b274db79f46" version="1.1" viewBox="236.347 969.098 29.805 23.805" height="23.805">
  <g id="shape-3227b980-8532-8021-8003-5b274db79f46" style="fill:#000000" rx="0" ry="0">
    <g id="shape-3227b980-8532-8021-8003-5b274dba2ea1">
      <g class="fills" id="fills-3227b980-8532-8021-8003-5b274dba2ea1">
        <path rx="0" ry="0" style="fill:#2c2c2c;fill-opacity:1" d="M262.403,969.098L240.097,969.098C238.026,969.098,236.347,970.776,236.347,972.848L236.347,989.153C236.347,991.224,238.026,992.903,240.097,992.903L262.403,992.903C264.474,992.903,266.153,991.224,266.153,989.153L266.153,972.848C266.153,970.776,264.474,969.098,262.403,969.098ZZM240.097,970.598L262.403,970.598C263.581,970.594,264.559,971.507,264.638,972.683C260.933,974.663,257.213,976.628,253.493,978.608C252.989,978.923,252.457,979.189,251.903,979.403C251.022,979.576,250.110,979.363,249.398,978.817C247.267,977.692,245.138,976.553,243.023,975.428C241.313,974.528,239.573,973.613,237.862,972.698C237.935,971.516,238.914,970.596,240.097,970.598ZZM264.653,989.153C264.653,990.395,263.645,991.403,262.403,991.403L240.097,991.403C238.855,991.403,237.847,990.395,237.847,989.153L237.847,974.400C241.388,976.260,244.912,978.150,248.453,980.025C249.085,980.413,249.766,980.715,250.478,980.925C251.519,981.094,252.587,980.876,253.478,980.310C255.653,979.170,257.813,978.015,259.987,976.875C261.548,976.035,263.092,975.225,264.653,974.400Z">
        </path>
      </g>
    </g>
  </g>
</svg>