<!-- Shape: search -->
<svg xmlns:xlink="http://www.w3.org/1999/xlink" fill="none" width="36" xmlns="http://www.w3.org/2000/svg" style="-webkit-print-color-adjust:exact" id="screenshot-3227b980-8532-8021-8003-5b2760da3446" version="1.1" viewBox="392.917 963 36 36" height="36">
  <g id="shape-3227b980-8532-8021-8003-5b2760da3446" style="fill:#000000" rx="0" ry="0">
    <g id="shape-3227b980-8532-8021-8003-5b2760db731d" style="fill:#000000" rx="0" ry="0">
      <g id="shape-3227b980-8532-8021-8003-5b2760dc38db">
        <g class="fills" id="fills-3227b980-8532-8021-8003-5b2760dc38db">
          <path rx="0" ry="0" style="fill:#2c2c2c;fill-opacity:1" d="M422.962,994.185C423.652,994.875,424.717,993.810,424.027,993.135L418.402,987.495C422.570,982.751,422.223,975.556,417.616,971.236C413.009,966.917,405.805,967.033,401.340,971.498C396.875,975.964,396.759,983.167,401.078,987.774C405.397,992.381,412.593,992.729,417.337,988.560ZM399.082,979.530C399.082,973.764,403.756,969.090,409.522,969.090C415.288,969.090,419.962,973.764,419.962,979.530C419.962,985.296,415.288,989.970,409.522,989.970C403.760,989.961,399.091,985.292,399.082,979.530ZZ">
          </path>
        </g>
      </g>
    </g>
  </g>
</svg>